<mxfile host="65bd71144e">
    <diagram id="_YmOYZzz9WUBCqumf2FQ" name="ページ1">
        <mxGraphModel dx="590" dy="462" grid="1" gridSize="10" guides="1" tooltips="1" connect="1" arrows="1" fold="1" page="1" pageScale="1" pageWidth="827" pageHeight="1169" math="0" shadow="0">
            <root>
                <mxCell id="0"/>
                <mxCell id="1" parent="0"/>
                <mxCell id="3" value="" style="ellipse;shape=cloud;whiteSpace=wrap;html=1;fillColor=#fff2cc;strokeColor=#d6b656;fillStyle=cross-hatch;dashed=1;opacity=50;sketch=1;curveFitting=1;jiggle=2;" parent="1" vertex="1">
                    <mxGeometry x="90" y="294.5" width="750" height="290" as="geometry"/>
                </mxCell>
                <mxCell id="5" value="" style="ellipse;shape=cloud;whiteSpace=wrap;html=1;fillColor=#dae8fc;strokeColor=#6c8ebf;fillStyle=hatch;dashed=1;opacity=60;sketch=1;curveFitting=1;jiggle=2;" parent="1" vertex="1">
                    <mxGeometry y="112" width="820" height="308" as="geometry"/>
                </mxCell>
                <mxCell id="9" value="多様体のCheeger定数" style="text;html=1;align=center;verticalAlign=middle;resizable=0;points=[];autosize=1;strokeColor=none;fillColor=none;fontColor=#0000CC;fontSize=14;fontStyle=1" vertex="1" parent="1">
                    <mxGeometry x="150" y="204.5" width="160" height="30" as="geometry"/>
                </mxCell>
                <mxCell id="10" value="グラスマン多様体" style="text;html=1;align=center;verticalAlign=middle;resizable=0;points=[];autosize=1;strokeColor=none;fillColor=none;fontColor=#0000CC;fontSize=14;fontStyle=1" vertex="1" parent="1">
                    <mxGeometry x="330" y="174.5" width="130" height="30" as="geometry"/>
                </mxCell>
                <mxCell id="11" value="Connesの埋め込み予想" style="text;html=1;align=center;verticalAlign=middle;resizable=0;points=[];autosize=1;strokeColor=none;fillColor=none;fontColor=#0000CC;fontSize=14;fontStyle=1" vertex="1" parent="1">
                    <mxGeometry x="530" y="194.5" width="170" height="30" as="geometry"/>
                </mxCell>
                <mxCell id="12" value="Green-Taoの定理" style="text;html=1;align=center;verticalAlign=middle;resizable=0;points=[];autosize=1;strokeColor=none;fillColor=none;fontColor=#0000CC;fontSize=14;fontStyle=1" vertex="1" parent="1">
                    <mxGeometry x="515" y="234.5" width="130" height="30" as="geometry"/>
                </mxCell>
                <mxCell id="13" value="Hilbertの零点定理" style="text;html=1;align=center;verticalAlign=middle;resizable=0;points=[];autosize=1;strokeColor=none;fillColor=none;fontColor=#0000CC;fontSize=14;fontStyle=1" vertex="1" parent="1">
                    <mxGeometry x="250" y="274.5" width="130" height="30" as="geometry"/>
                </mxCell>
                <mxCell id="14" value="Kazhdanの性質(T)" style="text;html=1;align=center;verticalAlign=middle;resizable=0;points=[];autosize=1;strokeColor=none;fillColor=none;fontColor=#0000CC;fontSize=14;fontStyle=1" vertex="1" parent="1">
                    <mxGeometry x="465" y="284.5" width="140" height="30" as="geometry"/>
                </mxCell>
                <mxCell id="16" value="楕円曲線" style="text;html=1;align=center;verticalAlign=middle;resizable=0;points=[];autosize=1;strokeColor=none;fillColor=none;fontColor=#0000CC;fontSize=14;fontStyle=1" vertex="1" parent="1">
                    <mxGeometry x="190" y="244.5" width="80" height="30" as="geometry"/>
                </mxCell>
                <mxCell id="24" value="Riemann-Rochの定理" style="text;html=1;align=center;verticalAlign=middle;resizable=0;points=[];autosize=1;strokeColor=none;fillColor=none;fontColor=#0000CC;fontSize=14;fontStyle=1" vertex="1" parent="1">
                    <mxGeometry x="285" y="234.5" width="160" height="30" as="geometry"/>
                </mxCell>
                <mxCell id="27" value="Goppa符号 (代数幾何符号)" style="text;html=1;align=center;verticalAlign=middle;resizable=0;points=[];autosize=1;strokeColor=none;fillColor=none;fontColor=#994C00;fontSize=14;fontStyle=1" vertex="1" parent="1">
                    <mxGeometry x="190" y="384.5" width="190" height="30" as="geometry"/>
                </mxCell>
                <mxCell id="28" value="グラフラプラシアン" style="text;html=1;align=center;verticalAlign=middle;resizable=0;points=[];autosize=1;strokeColor=none;fillColor=none;fontColor=#994C00;fontSize=14;fontStyle=1" vertex="1" parent="1">
                    <mxGeometry x="240" y="445.5" width="150" height="30" as="geometry"/>
                </mxCell>
                <mxCell id="29" value="楕円曲線暗号" style="text;html=1;align=center;verticalAlign=middle;resizable=0;points=[];autosize=1;strokeColor=none;fillColor=none;fontColor=#994C00;fontSize=14;fontStyle=1" vertex="1" parent="1">
                    <mxGeometry x="184" y="475.5" width="110" height="30" as="geometry"/>
                </mxCell>
                <mxCell id="30" value="PCP定理" style="text;html=1;align=center;verticalAlign=middle;resizable=0;points=[];autosize=1;strokeColor=none;fillColor=none;fontColor=#994C00;fontSize=14;fontStyle=1" vertex="1" parent="1">
                    <mxGeometry x="360" y="525.5" width="80" height="30" as="geometry"/>
                </mxCell>
                <mxCell id="32" value="学習アルゴリズムのブースティング" style="text;html=1;align=center;verticalAlign=middle;resizable=0;points=[];autosize=1;strokeColor=none;fillColor=none;fontColor=#994C00;fontSize=14;fontStyle=1" vertex="1" parent="1">
                    <mxGeometry x="400" y="465.5" width="240" height="30" as="geometry"/>
                </mxCell>
                <mxCell id="33" value="MIP*=RE定理" style="text;html=1;align=center;verticalAlign=middle;resizable=0;points=[];autosize=1;strokeColor=none;fillColor=none;fontColor=#994C00;fontSize=14;fontStyle=1" vertex="1" parent="1">
                    <mxGeometry x="445" y="405.5" width="110" height="30" as="geometry"/>
                </mxCell>
                <mxCell id="34" value="エクスパンダー" style="text;html=1;align=center;verticalAlign=middle;resizable=0;points=[];autosize=1;strokeColor=none;fillColor=none;fontColor=#994C00;fontSize=14;fontStyle=1" vertex="1" parent="1">
                    <mxGeometry x="270" y="334.5" width="120" height="30" as="geometry"/>
                </mxCell>
                <mxCell id="35" value="組合せ的零点定理" style="text;html=1;align=center;verticalAlign=middle;resizable=0;points=[];autosize=1;strokeColor=none;fillColor=none;fontColor=#994C00;fontSize=14;fontStyle=1" vertex="1" parent="1">
                    <mxGeometry x="545" y="424.5" width="140" height="30" as="geometry"/>
                </mxCell>
                <mxCell id="36" value="純粋数学の概念" style="text;html=1;align=center;verticalAlign=middle;resizable=0;points=[];autosize=1;strokeColor=none;fillColor=none;fontColor=#0000CC;fontSize=14;fontStyle=1" vertex="1" parent="1">
                    <mxGeometry x="174" y="124.5" width="120" height="30" as="geometry"/>
                </mxCell>
                <mxCell id="37" value="理論計算機科学の研究対象" style="text;html=1;align=center;verticalAlign=middle;resizable=0;points=[];autosize=1;strokeColor=none;fillColor=none;fontColor=#994C00;fontSize=14;fontStyle=1" vertex="1" parent="1">
                    <mxGeometry x="120" y="544.5" width="190" height="30" as="geometry"/>
                </mxCell>
                <mxCell id="39" value="最適化" style="text;html=1;align=center;verticalAlign=middle;resizable=0;points=[];autosize=1;strokeColor=none;fillColor=none;fontColor=#994C00;fontSize=14;fontStyle=1" vertex="1" parent="1">
                    <mxGeometry x="334" y="484.5" width="70" height="30" as="geometry"/>
                </mxCell>
                <mxCell id="40" value="マトロイド" style="text;html=1;align=center;verticalAlign=middle;resizable=0;points=[];autosize=1;strokeColor=none;fillColor=none;fontColor=#994C00;fontSize=14;fontStyle=1" vertex="1" parent="1">
                    <mxGeometry x="475" y="344.5" width="90" height="30" as="geometry"/>
                </mxCell>
                <mxCell id="41" value="IP=PSPACE定理" style="text;html=1;align=center;verticalAlign=middle;resizable=0;points=[];autosize=1;strokeColor=none;fillColor=none;fontColor=#994C00;fontSize=14;fontStyle=1" vertex="1" parent="1">
                    <mxGeometry x="440" y="514.5" width="130" height="30" as="geometry"/>
                </mxCell>
                <mxCell id="43" value="ランダムウォークの混交性" style="text;html=1;align=center;verticalAlign=middle;resizable=0;points=[];autosize=1;strokeColor=none;fillColor=none;fontColor=#994C00;fontSize=14;fontStyle=1" vertex="1" parent="1">
                    <mxGeometry x="294" y="357" width="190" height="30" as="geometry"/>
                </mxCell>
                <mxCell id="51" value="" style="endArrow=classic;startArrow=none;html=1;rounded=0;curved=1;shape=flexArrow;startFill=0;width=20.727272727272727;endSize=8.598787878787878;fillColor=#ffe6cc;strokeColor=#d79b00;" edge="1" parent="1">
                    <mxGeometry width="50" height="50" relative="1" as="geometry">
                        <mxPoint x="660" y="382.25" as="sourcePoint"/>
                        <mxPoint x="660" y="316.75" as="targetPoint"/>
                    </mxGeometry>
                </mxCell>
                <mxCell id="52" value="" style="endArrow=none;startArrow=block;html=1;rounded=0;curved=1;shape=flexArrow;startFill=0;width=20.727272727272727;endSize=8.598787878787878;fillColor=#dae8fc;strokeColor=#6c8ebf;endFill=0;" edge="1" parent="1">
                    <mxGeometry width="50" height="50" relative="1" as="geometry">
                        <mxPoint x="220" y="392.25" as="sourcePoint"/>
                        <mxPoint x="220" y="326.75" as="targetPoint"/>
                    </mxGeometry>
                </mxCell>
                <mxCell id="53" value="証明のアイデア, 道具" style="text;html=1;align=center;verticalAlign=middle;resizable=0;points=[];autosize=1;fillColor=default;gradientColor=none;fillStyle=auto;sketch=1;curveFitting=1;jiggle=2;opacity=70;fontStyle=1;fontColor=#0000CC;" vertex="1" parent="1">
                    <mxGeometry x="60" y="344.5" width="140" height="30" as="geometry"/>
                </mxCell>
                <mxCell id="54" value="&lt;font style=&quot;color: rgb(153, 76, 0);&quot;&gt;反例の構成&lt;/font&gt;&lt;div&gt;&lt;font style=&quot;color: rgb(153, 76, 0);&quot;&gt;新たな問題設定&lt;/font&gt;&lt;/div&gt;" style="text;html=1;align=center;verticalAlign=middle;resizable=0;points=[];autosize=1;fillColor=default;gradientColor=none;fillStyle=auto;sketch=1;curveFitting=1;jiggle=2;opacity=70;fontStyle=1;fontColor=#994C00;labelBackgroundColor=none;rounded=1;" vertex="1" parent="1">
                    <mxGeometry x="685" y="334.5" width="110" height="40" as="geometry"/>
                </mxCell>
            </root>
        </mxGraphModel>
    </diagram>
</mxfile>